STARTFONT 2.1
COMMENT Recovered from arc.ast's:CHAS AST (MIT CADR AST source recovered from ARC!!!)
FONT MIT-CADR-CHAS
SIZE 14 72 72
FONTBOUNDINGBOX 16 14 0 -4
STARTPROPERTIES 2
FONT_ASCENT 10
FONT_DESCENT 4
ENDPROPERTIES
CHARS 127
STARTCHAR C0001
ENCODING -1 1
SWIDTH 429 0
DWIDTH 6 0
BBX 16 14 0 -4
BITMAP
0000
7800
7800
7800
7800
7800
7800
7800
7800
7800
0000
0000
0000
0000
ENDCHAR
STARTCHAR C0002
ENCODING -1 2
SWIDTH 500 0
DWIDTH 7 0
BBX 16 14 0 -4
BITMAP
0000
0400
0C00
1C00
3C00
7C00
3C00
1C00
0C00
0400
0000
0000
0000
0000
ENDCHAR
STARTCHAR C0003
ENCODING -1 3
SWIDTH 571 0
DWIDTH 8 0
BBX 16 14 0 -4
BITMAP
0000
1800
0C00
0600
0600
0600
4C00
7800
7000
7800
0000
0000
0000
0000
ENDCHAR
STARTCHAR C0004
ENCODING -1 4
SWIDTH 714 0
DWIDTH 10 0
BBX 16 14 0 -4
BITMAP
0000
0000
0000
0000
0000
0000
0000
6180
6180
7F80
0000
0000
0000
0000
ENDCHAR
STARTCHAR C0005
ENCODING -1 5
SWIDTH 571 0
DWIDTH 8 0
BBX 16 14 0 -4
BITMAP
0000
6000
6000
6000
6000
7E00
6000
6000
6000
6000
0000
0000
0000
0000
ENDCHAR
STARTCHAR C0006
ENCODING -1 6
SWIDTH 0 0
DWIDTH 0 0
BBX 16 14 0 -4
BITMAP
0000
0000
0000
0000
0000
0000
0000
0000
0000
0000
0000
0000
0000
0000
ENDCHAR
STARTCHAR C0007
ENCODING -1 7
SWIDTH 0 0
DWIDTH 0 0
BBX 16 14 0 -4
BITMAP
0000
0000
0000
0000
0000
0000
0000
0000
0000
0000
0000
0000
0000
0000
ENDCHAR
STARTCHAR C0008
ENCODING -1 8
SWIDTH 0 0
DWIDTH 0 0
BBX 16 14 0 -4
BITMAP
0000
0000
0000
0000
0000
0000
0000
0000
0000
0000
0000
0000
0000
0000
ENDCHAR
STARTCHAR C0009
ENCODING -1 9
SWIDTH 0 0
DWIDTH 0 0
BBX 16 14 0 -4
BITMAP
0000
0000
0000
0000
0000
0000
0000
0000
0000
0000
0000
0000
0000
0000
ENDCHAR
STARTCHAR C000A
ENCODING -1 10
SWIDTH 500 0
DWIDTH 7 0
BBX 16 14 0 -4
BITMAP
0000
3800
3800
3800
3800
3800
3800
0000
3800
3800
0000
0000
0000
0000
ENDCHAR
STARTCHAR C000B
ENCODING -1 11
SWIDTH 0 0
DWIDTH 0 0
BBX 16 14 0 -4
BITMAP
0000
0000
0000
0000
0000
0000
0000
0000
0000
0000
0000
0000
0000
0000
ENDCHAR
STARTCHAR C000C
ENCODING -1 12
SWIDTH 0 0
DWIDTH 0 0
BBX 16 14 0 -4
BITMAP
0000
0000
0000
0000
0000
0000
0000
0000
0000
0000
0000
0000
0000
0000
ENDCHAR
STARTCHAR C000D
ENCODING -1 13
SWIDTH 0 0
DWIDTH 0 0
BBX 16 14 0 -4
BITMAP
0000
0000
0000
0000
0000
0000
0000
0000
0000
0000
0000
0000
0000
0000
ENDCHAR
STARTCHAR C000E
ENCODING -1 14
SWIDTH 0 0
DWIDTH 0 0
BBX 16 14 0 -4
BITMAP
0000
0000
0000
0000
0000
0000
0000
0000
0000
0000
0000
0000
0000
0000
ENDCHAR
STARTCHAR C000F
ENCODING -1 15
SWIDTH 0 0
DWIDTH 0 0
BBX 16 14 0 -4
BITMAP
0000
0000
0000
0000
0000
0000
0000
0000
0000
0000
0000
0000
0000
0000
ENDCHAR
STARTCHAR C0010
ENCODING -1 16
SWIDTH 0 0
DWIDTH 0 0
BBX 16 14 0 -4
BITMAP
0000
0000
0000
0000
0000
0000
0000
0000
0000
0000
0000
0000
0000
0000
ENDCHAR
STARTCHAR C0011
ENCODING -1 17
SWIDTH 0 0
DWIDTH 0 0
BBX 16 14 0 -4
BITMAP
0000
0000
0000
0000
0000
0000
0000
0000
0000
0000
0000
0000
0000
0000
ENDCHAR
STARTCHAR C0012
ENCODING -1 18
SWIDTH 0 0
DWIDTH 0 0
BBX 16 14 0 -4
BITMAP
0000
0000
0000
0000
0000
0000
0000
0000
0000
0000
0000
0000
0000
0000
ENDCHAR
STARTCHAR C0013
ENCODING -1 19
SWIDTH 0 0
DWIDTH 0 0
BBX 16 14 0 -4
BITMAP
0000
0000
0000
0000
0000
0000
0000
0000
0000
0000
0000
0000
0000
0000
ENDCHAR
STARTCHAR C0014
ENCODING -1 20
SWIDTH 857 0
DWIDTH 12 0
BBX 16 14 0 -4
BITMAP
0000
3FC0
2040
2F40
2940
2940
2940
2940
2940
2F40
2040
D570
AA90
FFF0
ENDCHAR
STARTCHAR C0015
ENCODING -1 21
SWIDTH 0 0
DWIDTH 0 0
BBX 16 14 0 -4
BITMAP
0000
0000
0000
0000
0000
0000
0000
0000
0000
0000
0000
0000
0000
0000
ENDCHAR
STARTCHAR C0016
ENCODING -1 22
SWIDTH 0 0
DWIDTH 0 0
BBX 16 14 0 -4
BITMAP
0000
0000
0000
0000
0000
0000
0000
0000
0000
0000
0000
0000
0000
0000
ENDCHAR
STARTCHAR C0017
ENCODING -1 23
SWIDTH 0 0
DWIDTH 0 0
BBX 16 14 0 -4
BITMAP
0000
0000
0000
0000
0000
0000
0000
0000
0000
0000
0000
0000
0000
0000
ENDCHAR
STARTCHAR C0018
ENCODING -1 24
SWIDTH 0 0
DWIDTH 0 0
BBX 16 14 0 -4
BITMAP
0000
0000
0000
0000
0000
0000
0000
0000
0000
0000
0000
0000
0000
FFF0
ENDCHAR
STARTCHAR C0019
ENCODING -1 25
SWIDTH 0 0
DWIDTH 0 0
BBX 16 14 0 -4
BITMAP
0000
0000
0000
0000
0000
0000
0000
0000
0000
0000
0000
0000
0000
0000
ENDCHAR
STARTCHAR C001A
ENCODING -1 26
SWIDTH 0 0
DWIDTH 0 0
BBX 16 14 0 -4
BITMAP
0000
0000
0000
0000
0000
0000
0000
0000
0000
0000
0000
0000
0000
0000
ENDCHAR
STARTCHAR C001B
ENCODING -1 27
SWIDTH 0 0
DWIDTH 0 0
BBX 16 14 0 -4
BITMAP
0000
0000
0000
0000
0000
0000
0000
0000
0000
0000
0000
0000
0000
0000
ENDCHAR
STARTCHAR C001C
ENCODING -1 28
SWIDTH 0 0
DWIDTH 0 0
BBX 16 14 0 -4
BITMAP
0000
0000
0000
0000
0000
0000
0000
0000
0000
0000
0000
0000
0000
0000
ENDCHAR
STARTCHAR C001D
ENCODING -1 29
SWIDTH 0 0
DWIDTH 0 0
BBX 16 14 0 -4
BITMAP
0000
0000
0000
0000
0000
0000
0000
0000
0000
0000
0000
0000
0000
0000
ENDCHAR
STARTCHAR C001E
ENCODING -1 30
SWIDTH 0 0
DWIDTH 0 0
BBX 16 14 0 -4
BITMAP
0000
0000
0000
0000
0000
0000
0000
0000
0000
0000
0000
0000
0000
0000
ENDCHAR
STARTCHAR C001F
ENCODING -1 31
SWIDTH 0 0
DWIDTH 0 0
BBX 16 14 0 -4
BITMAP
0000
0000
0000
0000
0000
0000
0000
0000
0000
0000
0000
0000
0000
0000
ENDCHAR
STARTCHAR C0020
ENCODING -1 32
SWIDTH 571 0
DWIDTH 8 0
BBX 16 14 0 -4
BITMAP
0000
0000
0000
0000
0000
0000
0000
0000
0000
0000
0000
0000
0000
0000
ENDCHAR
STARTCHAR C0021
ENCODING -1 33
SWIDTH 286 0
DWIDTH 4 0
BBX 16 14 0 -4
BITMAP
0000
6000
6000
6000
6000
6000
6000
0000
6000
6000
0000
0000
0000
0000
ENDCHAR
STARTCHAR C0022
ENCODING -1 34
SWIDTH 500 0
DWIDTH 7 0
BBX 16 14 0 -4
BITMAP
0000
6C00
6C00
6C00
6C00
0000
0000
0000
0000
0000
0000
0000
0000
0000
ENDCHAR
STARTCHAR C0023
ENCODING -1 35
SWIDTH 643 0
DWIDTH 9 0
BBX 16 14 0 -4
BITMAP
0000
0000
0A00
0A00
3F00
1400
1400
7E00
2800
2800
0000
0000
0000
0000
ENDCHAR
STARTCHAR C0024
ENCODING -1 36
SWIDTH 643 0
DWIDTH 9 0
BBX 16 14 0 -4
BITMAP
0000
0800
3E00
6B00
6800
3E00
0B00
6B00
6B00
3E00
0800
0000
0000
0000
ENDCHAR
STARTCHAR C0025
ENCODING -1 37
SWIDTH 1000 0
DWIDTH 14 0
BBX 16 14 0 -4
BITMAP
0000
38C0
6CC0
6D80
3980
0300
0670
06D8
0CD8
0C70
0000
0000
0000
0000
ENDCHAR
STARTCHAR C0026
ENCODING -1 38
SWIDTH 786 0
DWIDTH 11 0
BBX 16 14 0 -4
BITMAP
0000
1C00
3600
3600
1C00
3D00
6700
6300
6780
3CC0
0000
0000
0000
0000
ENDCHAR
STARTCHAR C0027
ENCODING -1 39
SWIDTH 571 0
DWIDTH 8 0
BBX 16 14 0 -4
BITMAP
0000
6000
6000
6000
6000
0000
0000
0000
0000
0000
0000
0000
0000
0000
ENDCHAR
STARTCHAR C0028
ENCODING -1 40
SWIDTH 500 0
DWIDTH 7 0
BBX 16 14 0 -4
BITMAP
0C00
1800
3000
3000
6000
6000
6000
6000
6000
3000
3000
1800
0C00
0000
ENDCHAR
STARTCHAR C0029
ENCODING -1 41
SWIDTH 500 0
DWIDTH 7 0
BBX 16 14 0 -4
BITMAP
6000
3000
1800
1800
0C00
0C00
0C00
0C00
0C00
1800
1800
3000
6000
0000
ENDCHAR
STARTCHAR C002A
ENCODING -1 42
SWIDTH 500 0
DWIDTH 7 0
BBX 16 14 0 -4
BITMAP
0000
1000
5400
7C00
3800
7C00
5400
1000
0000
0000
0000
0000
0000
0000
ENDCHAR
STARTCHAR C002B
ENCODING -1 43
SWIDTH 714 0
DWIDTH 10 0
BBX 16 14 0 -4
BITMAP
0000
0000
0000
0C00
0C00
0C00
7F80
0C00
0C00
0C00
0000
0000
0000
0000
ENDCHAR
STARTCHAR C002C
ENCODING -1 44
SWIDTH 286 0
DWIDTH 4 0
BBX 16 14 0 -4
BITMAP
0000
0000
0000
0000
0000
0000
0000
0000
6000
6000
2000
6000
C000
0000
ENDCHAR
STARTCHAR C002D
ENCODING -1 45
SWIDTH 500 0
DWIDTH 7 0
BBX 16 14 0 -4
BITMAP
0000
0000
0000
0000
0000
0000
7C00
7C00
0000
0000
0000
0000
0000
0000
ENDCHAR
STARTCHAR C002E
ENCODING -1 46
SWIDTH 286 0
DWIDTH 4 0
BBX 16 14 0 -4
BITMAP
0000
0000
0000
0000
0000
0000
0000
0000
6000
6000
0000
0000
0000
0000
ENDCHAR
STARTCHAR C002F
ENCODING -1 47
SWIDTH 571 0
DWIDTH 8 0
BBX 16 14 0 -4
BITMAP
0000
0000
0C00
0C00
1800
1800
3000
3000
6000
6000
0000
0000
0000
0000
ENDCHAR
STARTCHAR C0030
ENCODING -1 48
SWIDTH 571 0
DWIDTH 8 0
BBX 16 14 0 -4
BITMAP
0000
0000
3C00
6600
6600
6600
6600
6600
6600
3C00
0000
0000
0000
0000
ENDCHAR
STARTCHAR C0031
ENCODING -1 49
SWIDTH 571 0
DWIDTH 8 0
BBX 16 14 0 -4
BITMAP
0000
0000
1800
3800
5800
1800
1800
1800
1800
7E00
0000
0000
0000
0000
ENDCHAR
STARTCHAR C0032
ENCODING -1 50
SWIDTH 571 0
DWIDTH 8 0
BBX 16 14 0 -4
BITMAP
0000
0000
3C00
6600
0600
0C00
1800
3000
6000
7E00
0000
0000
0000
0000
ENDCHAR
STARTCHAR C0033
ENCODING -1 51
SWIDTH 571 0
DWIDTH 8 0
BBX 16 14 0 -4
BITMAP
0000
0000
3C00
6600
0600
1C00
0600
4600
6600
3C00
0000
0000
0000
0000
ENDCHAR
STARTCHAR C0034
ENCODING -1 52
SWIDTH 571 0
DWIDTH 8 0
BBX 16 14 0 -4
BITMAP
0000
0000
0600
0E00
1E00
3600
6600
7F00
0600
0600
0000
0000
0000
0000
ENDCHAR
STARTCHAR C0035
ENCODING -1 53
SWIDTH 571 0
DWIDTH 8 0
BBX 16 14 0 -4
BITMAP
0000
0000
3E00
3000
3000
3C00
0600
6600
6600
3C00
0000
0000
0000
0000
ENDCHAR
STARTCHAR C0036
ENCODING -1 54
SWIDTH 571 0
DWIDTH 8 0
BBX 16 14 0 -4
BITMAP
0000
0000
3C00
6600
6000
7C00
6600
6600
6600
3C00
0000
0000
0000
0000
ENDCHAR
STARTCHAR C0037
ENCODING -1 55
SWIDTH 571 0
DWIDTH 8 0
BBX 16 14 0 -4
BITMAP
0000
0000
7E00
0600
0C00
0C00
1800
1800
3000
3000
0000
0000
0000
0000
ENDCHAR
STARTCHAR C0038
ENCODING -1 56
SWIDTH 571 0
DWIDTH 8 0
BBX 16 14 0 -4
BITMAP
0000
0000
3C00
6600
6600
3C00
6600
6600
6600
3C00
0000
0000
0000
0000
ENDCHAR
STARTCHAR C0039
ENCODING -1 57
SWIDTH 571 0
DWIDTH 8 0
BBX 16 14 0 -4
BITMAP
0000
0000
3C00
6600
6600
6600
3E00
0600
6600
3C00
0000
0000
0000
0000
ENDCHAR
STARTCHAR C003A
ENCODING -1 58
SWIDTH 286 0
DWIDTH 4 0
BBX 16 14 0 -4
BITMAP
0000
0000
0000
0000
6000
6000
0000
0000
6000
6000
0000
0000
0000
0000
ENDCHAR
STARTCHAR C003B
ENCODING -1 59
SWIDTH 286 0
DWIDTH 4 0
BBX 16 14 0 -4
BITMAP
0000
0000
0000
0000
6000
6000
0000
0000
6000
6000
2000
6000
C000
0000
ENDCHAR
STARTCHAR C003C
ENCODING -1 60
SWIDTH 571 0
DWIDTH 8 0
BBX 16 14 0 -4
BITMAP
0000
0600
0C00
1800
3000
6000
3000
1800
0C00
0600
0000
0000
0000
0000
ENDCHAR
STARTCHAR C003D
ENCODING -1 61
SWIDTH 571 0
DWIDTH 8 0
BBX 16 14 0 -4
BITMAP
0000
0000
0000
0000
7E00
7E00
0000
7E00
7E00
0000
0000
0000
0000
0000
ENDCHAR
STARTCHAR C003E
ENCODING -1 62
SWIDTH 571 0
DWIDTH 8 0
BBX 16 14 0 -4
BITMAP
0000
6000
3000
1800
0C00
0600
0C00
1800
3000
6000
0000
0000
0000
0000
ENDCHAR
STARTCHAR C003F
ENCODING -1 63
SWIDTH 571 0
DWIDTH 8 0
BBX 16 14 0 -4
BITMAP
0000
3C00
6600
6600
0C00
1800
1800
0000
1800
1800
0000
0000
0000
0000
ENDCHAR
STARTCHAR C0040
ENCODING -1 64
SWIDTH 714 0
DWIDTH 10 0
BBX 16 14 0 -4
BITMAP
0000
1F00
3180
6780
6D80
6D80
6D80
6700
3000
1F80
0000
0000
0000
0000
ENDCHAR
STARTCHAR C0041
ENCODING -1 65
SWIDTH 571 0
DWIDTH 8 0
BBX 16 14 0 -4
BITMAP
0000
1800
3C00
6600
6600
6600
7E00
6600
6600
6600
0000
0000
0000
0000
ENDCHAR
STARTCHAR C0042
ENCODING -1 66
SWIDTH 571 0
DWIDTH 8 0
BBX 16 14 0 -4
BITMAP
0000
7C00
6600
6600
6600
7C00
6600
6600
6600
7C00
0000
0000
0000
0000
ENDCHAR
STARTCHAR C0043
ENCODING -1 67
SWIDTH 571 0
DWIDTH 8 0
BBX 16 14 0 -4
BITMAP
0000
3C00
6600
6600
6000
6000
6000
6600
6600
3C00
0000
0000
0000
0000
ENDCHAR
STARTCHAR C0044
ENCODING -1 68
SWIDTH 571 0
DWIDTH 8 0
BBX 16 14 0 -4
BITMAP
0000
7C00
6600
6600
6600
6600
6600
6600
6600
7C00
0000
0000
0000
0000
ENDCHAR
STARTCHAR C0045
ENCODING -1 69
SWIDTH 571 0
DWIDTH 8 0
BBX 16 14 0 -4
BITMAP
0000
7E00
6000
6000
6000
7C00
6000
6000
6000
7E00
0000
0000
0000
0000
ENDCHAR
STARTCHAR C0046
ENCODING -1 70
SWIDTH 500 0
DWIDTH 7 0
BBX 16 14 0 -4
BITMAP
0000
7E00
6000
6000
6000
7C00
6000
6000
6000
6000
0000
0000
0000
0000
ENDCHAR
STARTCHAR C0047
ENCODING -1 71
SWIDTH 571 0
DWIDTH 8 0
BBX 16 14 0 -4
BITMAP
0000
3C00
6600
6600
6000
6E00
6600
6600
6600
3C00
0000
0000
0000
0000
ENDCHAR
STARTCHAR C0048
ENCODING -1 72
SWIDTH 571 0
DWIDTH 8 0
BBX 16 14 0 -4
BITMAP
0000
6600
6600
6600
6600
7E00
6600
6600
6600
6600
0000
0000
0000
0000
ENDCHAR
STARTCHAR C0049
ENCODING -1 73
SWIDTH 286 0
DWIDTH 4 0
BBX 16 14 0 -4
BITMAP
0000
6000
6000
6000
6000
6000
6000
6000
6000
6000
0000
0000
0000
0000
ENDCHAR
STARTCHAR C004A
ENCODING -1 74
SWIDTH 500 0
DWIDTH 7 0
BBX 16 14 0 -4
BITMAP
0000
0C00
0C00
0C00
0C00
0C00
0C00
CC00
CC00
7800
0000
0000
0000
0000
ENDCHAR
STARTCHAR C004B
ENCODING -1 75
SWIDTH 571 0
DWIDTH 8 0
BBX 16 14 0 -4
BITMAP
0000
6600
6600
6C00
7800
7C00
6600
6600
6600
6600
0000
0000
0000
0000
ENDCHAR
STARTCHAR C004C
ENCODING -1 76
SWIDTH 500 0
DWIDTH 7 0
BBX 16 14 0 -4
BITMAP
0000
6000
6000
6000
6000
6000
6000
6000
6000
7E00
0000
0000
0000
0000
ENDCHAR
STARTCHAR C004D
ENCODING -1 77
SWIDTH 714 0
DWIDTH 10 0
BBX 16 14 0 -4
BITMAP
0000
6180
7380
7380
7F80
6D80
6D80
6D80
6D80
6D80
0000
0000
0000
0000
ENDCHAR
STARTCHAR C004E
ENCODING -1 78
SWIDTH 643 0
DWIDTH 9 0
BBX 16 14 0 -4
BITMAP
0000
6300
7300
7300
7B00
6B00
6F00
6700
6700
6300
0000
0000
0000
0000
ENDCHAR
STARTCHAR C004F
ENCODING -1 79
SWIDTH 571 0
DWIDTH 8 0
BBX 16 14 0 -4
BITMAP
0000
3C00
6600
6600
6600
6600
6600
6600
6600
3C00
0000
0000
0000
0000
ENDCHAR
STARTCHAR C0050
ENCODING -1 80
SWIDTH 571 0
DWIDTH 8 0
BBX 16 14 0 -4
BITMAP
0000
7C00
6600
6600
6600
6600
7C00
6000
6000
6000
0000
0000
0000
0000
ENDCHAR
STARTCHAR C0051
ENCODING -1 81
SWIDTH 571 0
DWIDTH 8 0
BBX 16 14 0 -4
BITMAP
0000
3C00
6600
6600
6600
6600
6600
6600
6600
3C00
0C00
0600
0000
0000
ENDCHAR
STARTCHAR C0052
ENCODING -1 82
SWIDTH 571 0
DWIDTH 8 0
BBX 16 14 0 -4
BITMAP
0000
7C00
6600
6600
6600
7C00
6600
6600
6600
6600
0000
0000
0000
0000
ENDCHAR
STARTCHAR C0053
ENCODING -1 83
SWIDTH 571 0
DWIDTH 8 0
BBX 16 14 0 -4
BITMAP
0000
3C00
6600
6000
3800
1C00
0E00
6600
6600
3C00
0000
0000
0000
0000
ENDCHAR
STARTCHAR C0054
ENCODING -1 84
SWIDTH 571 0
DWIDTH 8 0
BBX 16 14 0 -4
BITMAP
0000
7E00
1800
1800
1800
1800
1800
1800
1800
1800
0000
0000
0000
0000
ENDCHAR
STARTCHAR C0055
ENCODING -1 85
SWIDTH 571 0
DWIDTH 8 0
BBX 16 14 0 -4
BITMAP
0000
6600
6600
6600
6600
6600
6600
6600
6600
3C00
0000
0000
0000
0000
ENDCHAR
STARTCHAR C0056
ENCODING -1 86
SWIDTH 571 0
DWIDTH 8 0
BBX 16 14 0 -4
BITMAP
0000
6600
6600
6600
6600
6600
6600
6600
3C00
1800
0000
0000
0000
0000
ENDCHAR
STARTCHAR C0057
ENCODING -1 87
SWIDTH 857 0
DWIDTH 12 0
BBX 16 14 0 -4
BITMAP
0000
6660
6660
6660
6660
6660
6660
6F60
39C0
1080
0000
0000
0000
0000
ENDCHAR
STARTCHAR C0058
ENCODING -1 88
SWIDTH 571 0
DWIDTH 8 0
BBX 16 14 0 -4
BITMAP
0000
6600
6600
6600
3C00
1800
3C00
6600
6600
6600
0000
0000
0000
0000
ENDCHAR
STARTCHAR C0059
ENCODING -1 89
SWIDTH 571 0
DWIDTH 8 0
BBX 16 14 0 -4
BITMAP
0000
6600
6600
6600
6600
3C00
1800
1800
1800
1800
0000
0000
0000
0000
ENDCHAR
STARTCHAR C005A
ENCODING -1 90
SWIDTH 571 0
DWIDTH 8 0
BBX 16 14 0 -4
BITMAP
0000
7E00
0600
0600
0C00
1800
1800
3000
6000
7E00
0000
0000
0000
0000
ENDCHAR
STARTCHAR C005B
ENCODING -1 91
SWIDTH 571 0
DWIDTH 8 0
BBX 16 14 0 -4
BITMAP
7E00
6000
6000
6000
6000
6000
6000
6000
6000
6000
6000
6000
7E00
0000
ENDCHAR
STARTCHAR C005C
ENCODING -1 92
SWIDTH 571 0
DWIDTH 8 0
BBX 16 14 0 -4
BITMAP
6000
6000
3000
3000
1800
1800
0C00
0C00
0600
0600
0000
0000
0000
0000
ENDCHAR
STARTCHAR C005D
ENCODING -1 93
SWIDTH 571 0
DWIDTH 8 0
BBX 16 14 0 -4
BITMAP
7E00
0600
0600
0600
0600
0600
0600
0600
0600
0600
0600
0600
7E00
0000
ENDCHAR
STARTCHAR C005E
ENCODING -1 94
SWIDTH 571 0
DWIDTH 8 0
BBX 16 14 0 -4
BITMAP
0000
0000
0000
1800
3C00
7E00
5A00
1800
1800
1800
0000
0000
0000
0000
ENDCHAR
STARTCHAR C005F
ENCODING -1 95
SWIDTH 643 0
DWIDTH 9 0
BBX 16 14 0 -4
BITMAP
0000
0000
0000
1800
3000
7F00
7F00
3000
1800
0000
0000
0000
0000
0000
ENDCHAR
STARTCHAR C0060
ENCODING -1 96
SWIDTH 571 0
DWIDTH 8 0
BBX 16 14 0 -4
BITMAP
0000
0000
0000
0000
0000
0000
0000
0000
0000
0000
0000
0000
0000
0000
ENDCHAR
STARTCHAR C0061
ENCODING -1 97
SWIDTH 571 0
DWIDTH 8 0
BBX 16 14 0 -4
BITMAP
0000
0000
0000
0000
3600
6E00
6600
6600
6E00
3600
0000
0000
0000
0000
ENDCHAR
STARTCHAR C0062
ENCODING -1 98
SWIDTH 571 0
DWIDTH 8 0
BBX 16 14 0 -4
BITMAP
0000
6000
6000
6000
7C00
6600
6600
6600
6600
7C00
0000
0000
0000
0000
ENDCHAR
STARTCHAR C0063
ENCODING -1 99
SWIDTH 571 0
DWIDTH 8 0
BBX 16 14 0 -4
BITMAP
0000
0000
0000
0000
3C00
6600
6000
6000
6600
3C00
0000
0000
0000
0000
ENDCHAR
STARTCHAR C0064
ENCODING -1 100
SWIDTH 571 0
DWIDTH 8 0
BBX 16 14 0 -4
BITMAP
0000
0600
0600
0600
3E00
6600
6600
6600
6600
3E00
0000
0000
0000
0000
ENDCHAR
STARTCHAR C0065
ENCODING -1 101
SWIDTH 571 0
DWIDTH 8 0
BBX 16 14 0 -4
BITMAP
0000
0000
0000
0000
3C00
6600
7E00
6000
6600
3C00
0000
0000
0000
0000
ENDCHAR
STARTCHAR C0066
ENCODING -1 102
SWIDTH 429 0
DWIDTH 6 0
BBX 16 14 0 -4
BITMAP
0000
1C00
3000
3000
7C00
3000
3000
3000
3000
3000
0000
0000
0000
0000
ENDCHAR
STARTCHAR C0067
ENCODING -1 103
SWIDTH 571 0
DWIDTH 8 0
BBX 16 14 0 -4
BITMAP
0000
0000
0000
0000
3E00
6600
6600
6600
6600
3E00
0600
6600
3C00
0000
ENDCHAR
STARTCHAR C0068
ENCODING -1 104
SWIDTH 571 0
DWIDTH 8 0
BBX 16 14 0 -4
BITMAP
0000
6000
6000
6000
7C00
6600
6600
6600
6600
6600
0000
0000
0000
0000
ENDCHAR
STARTCHAR C0069
ENCODING -1 105
SWIDTH 286 0
DWIDTH 4 0
BBX 16 14 0 -4
BITMAP
0000
6000
6000
0000
6000
6000
6000
6000
6000
6000
0000
0000
0000
0000
ENDCHAR
STARTCHAR C006A
ENCODING -1 106
SWIDTH 357 0
DWIDTH 5 0
BBX 16 14 0 -4
BITMAP
0000
3000
3000
0000
3000
3000
3000
3000
3000
3000
3000
3000
E000
0000
ENDCHAR
STARTCHAR C006B
ENCODING -1 107
SWIDTH 571 0
DWIDTH 8 0
BBX 16 14 0 -4
BITMAP
0000
6000
6000
6000
6600
6C00
7800
6C00
6600
6300
0000
0000
0000
0000
ENDCHAR
STARTCHAR C006C
ENCODING -1 108
SWIDTH 286 0
DWIDTH 4 0
BBX 16 14 0 -4
BITMAP
0000
6000
6000
6000
6000
6000
6000
6000
6000
6000
0000
0000
0000
0000
ENDCHAR
STARTCHAR C006D
ENCODING -1 109
SWIDTH 714 0
DWIDTH 10 0
BBX 16 14 0 -4
BITMAP
0000
0000
0000
0000
7F00
6D80
6D80
6D80
6D80
6D80
0000
0000
0000
0000
ENDCHAR
STARTCHAR C006E
ENCODING -1 110
SWIDTH 571 0
DWIDTH 8 0
BBX 16 14 0 -4
BITMAP
0000
0000
0000
0000
7C00
6600
6600
6600
6600
6600
0000
0000
0000
0000
ENDCHAR
STARTCHAR C006F
ENCODING -1 111
SWIDTH 571 0
DWIDTH 8 0
BBX 16 14 0 -4
BITMAP
0000
0000
0000
0000
3C00
6600
6600
6600
6600
3C00
0000
0000
0000
0000
ENDCHAR
STARTCHAR C0070
ENCODING -1 112
SWIDTH 571 0
DWIDTH 8 0
BBX 16 14 0 -4
BITMAP
0000
0000
0000
0000
7C00
6600
6600
6600
6600
7C00
6000
6000
6000
0000
ENDCHAR
STARTCHAR C0071
ENCODING -1 113
SWIDTH 571 0
DWIDTH 8 0
BBX 16 14 0 -4
BITMAP
0000
0000
0000
0000
3E00
6600
6600
6600
6600
3E00
0600
0600
0600
0000
ENDCHAR
STARTCHAR C0072
ENCODING -1 114
SWIDTH 429 0
DWIDTH 6 0
BBX 16 14 0 -4
BITMAP
0000
0000
0000
0000
6C00
7C00
6000
6000
6000
6000
0000
0000
0000
0000
ENDCHAR
STARTCHAR C0073
ENCODING -1 115
SWIDTH 571 0
DWIDTH 8 0
BBX 16 14 0 -4
BITMAP
0000
0000
0000
0000
1C00
3600
3800
0E00
6600
3C00
0000
0000
0000
0000
ENDCHAR
STARTCHAR C0074
ENCODING -1 116
SWIDTH 500 0
DWIDTH 7 0
BBX 16 14 0 -4
BITMAP
0000
0000
3000
3000
7C00
3000
3000
3000
3000
1C00
0000
0000
0000
0000
ENDCHAR
STARTCHAR C0075
ENCODING -1 117
SWIDTH 571 0
DWIDTH 8 0
BBX 16 14 0 -4
BITMAP
0000
0000
0000
0000
6600
6600
6600
6600
6600
3E00
0000
0000
0000
0000
ENDCHAR
STARTCHAR C0076
ENCODING -1 118
SWIDTH 571 0
DWIDTH 8 0
BBX 16 14 0 -4
BITMAP
0000
0000
0000
0000
6600
6600
6600
6600
3C00
1800
0000
0000
0000
0000
ENDCHAR
STARTCHAR C0077
ENCODING -1 119
SWIDTH 714 0
DWIDTH 10 0
BBX 16 14 0 -4
BITMAP
0000
0000
0000
0000
6180
6D80
6D80
6D80
3F00
3300
0000
0000
0000
0000
ENDCHAR
STARTCHAR C0078
ENCODING -1 120
SWIDTH 571 0
DWIDTH 8 0
BBX 16 14 0 -4
BITMAP
0000
0000
0000
0000
6600
6600
3C00
3C00
6600
6600
0000
0000
0000
0000
ENDCHAR
STARTCHAR C0079
ENCODING -1 121
SWIDTH 571 0
DWIDTH 8 0
BBX 16 14 0 -4
BITMAP
0000
0000
0000
0000
6600
6600
6600
6600
6600
3E00
0600
6600
3C00
0000
ENDCHAR
STARTCHAR C007A
ENCODING -1 122
SWIDTH 571 0
DWIDTH 8 0
BBX 16 14 0 -4
BITMAP
0000
0000
0000
0000
7C00
0C00
1800
3000
6000
7E00
0000
0000
0000
0000
ENDCHAR
STARTCHAR C007B
ENCODING -1 123
SWIDTH 643 0
DWIDTH 9 0
BBX 16 14 0 -4
BITMAP
0700
0C00
0C00
0C00
0C00
1800
7000
1800
0C00
0C00
0C00
0C00
0700
0000
ENDCHAR
STARTCHAR C007C
ENCODING -1 124
SWIDTH 286 0
DWIDTH 4 0
BBX 16 14 0 -4
BITMAP
6000
6000
6000
6000
6000
6000
6000
6000
6000
6000
6000
6000
6000
0000
ENDCHAR
STARTCHAR C007D
ENCODING -1 125
SWIDTH 643 0
DWIDTH 9 0
BBX 16 14 0 -4
BITMAP
7000
1800
1800
1800
1800
0C00
0700
0C00
1800
1800
1800
1800
7000
0000
ENDCHAR
STARTCHAR C007E
ENCODING -1 126
SWIDTH 571 0
DWIDTH 8 0
BBX 16 14 0 -4
BITMAP
0000
0000
0000
0000
0000
3200
7E00
4C00
0000
0000
0000
0000
0000
0000
ENDCHAR
STARTCHAR C007F
ENCODING -1 127
SWIDTH 0 0
DWIDTH 0 0
BBX 16 14 0 -4
BITMAP
0000
0000
0000
0000
0000
0000
0000
0000
0000
0000
0000
0000
0000
0000
ENDCHAR
ENDFONT
